Coordinates
version=1
nRows=17
nColumns=40
inDegrees=yes

Units are S.I. units (second, meters, Newtons, ...)
If the header above contains a line with 'inDegrees', this indicates whether rotational values are in degrees (yes) or radians (no).

endheader
time	pelvis_tilt	pelvis_list	pelvis_rotation	pelvis_tx	pelvis_ty	pelvis_tz	hip_flexion_r	hip_adduction_r	hip_rotation_r	knee_angle_r	knee_angle_r_beta	ankle_angle_r	subtalar_angle_r	mtp_angle_r	hip_flexion_l	hip_adduction_l	hip_rotation_l	knee_angle_l	knee_angle_l_beta	ankle_angle_l	subtalar_angle_l	mtp_angle_l	lumbar_extension	lumbar_bending	lumbar_rotation	arm_flex_r	arm_add_r	arm_rot_r	elbow_flex_r	pro_sup_r	wrist_flex_r	wrist_dev_r	arm_flex_l	arm_add_l	arm_rot_l	elbow_flex_l	pro_sup_l	wrist_flex_l	wrist_dev_l
      3.15000000	     -7.89934246	     -0.89128064	     -1.25956614	     -0.40609368	      0.91777815	     -1.04696309	     55.64467337	      0.82836185	    -11.26413519	      5.68597818	      0.09923904	      1.03220252	      0.00000000	      0.00000000	     44.80002319	     -2.42889419	     -7.16439660	     62.52133437	      1.09120314	     12.34319032	      0.00000000	      0.00000000	     -6.75358750	    -11.74252247	      4.01222028	     89.96604899	    -24.00518963	      8.81846092	     48.94846320	     36.54773159	      0.00000000	      0.00000000	     89.95576746	    -33.36188328	      2.66597021	     49.80079370	     62.05525919	      0.00000000	      0.00000000
      3.15500000	     -7.98959786	     -0.82785006	     -1.19226204	     -0.40617202	      0.91721728	     -1.04695534	     55.72801959	      0.73596551	    -11.26192861	      5.65989482	      0.09878380	      1.05944205	      0.00000000	      0.00000000	     44.95034427	     -2.34306542	     -7.15928454	     62.58781590	      1.09236346	     12.31820845	      0.00000000	      0.00000000	     -6.71268628	    -11.83995057	      3.93237482	     89.96603259	    -24.06494352	      8.74172302	     48.89737184	     37.47381912	      0.00000000	      0.00000000	     89.95588474	    -33.38521110	      2.73133181	     50.01322884	     59.92407024	      0.00000000	      0.00000000
      3.16000000	     -8.01886389	     -0.80030857	     -1.15661818	     -0.40621355	      0.91681539	     -1.04691366	     55.72804671	      0.69351342	    -11.27543228	      5.59510899	      0.09765307	      1.05166740	      0.00000000	      0.00000000	     45.03729110	     -2.31972721	     -7.16024638	     62.70742932	      1.09445111	     12.38126695	      0.00000000	      0.00000000	     -6.73522030	    -11.90163375	      3.91063860	     89.96600543	    -24.12684208	      8.64711682	     48.89657512	     37.85786515	      0.00000000	      0.00000000	     89.95600400	    -33.38868454	      2.70747439	     50.16288583	     58.94824961	      0.00000000	      0.00000000
      3.16500000	     -8.10573477	     -0.80254607	     -1.08903508	     -0.40624377	      0.91627268	     -1.04680125	     55.84594003	      0.64270544	    -11.43533195	      5.69008545	      0.09931073	      1.15812508	      0.00000000	      0.00000000	     45.18768004	     -2.30269812	     -7.11881260	     62.77288144	      1.09559346	     12.27226736	      0.00000000	      0.00000000	     -6.68366636	    -11.92988286	      3.82850792	     89.96600050	    -24.13224677	      8.50376494	     48.79714320	     38.63959892	      0.00000000	      0.00000000	     89.95611896	    -33.42364397	      2.76334420	     50.29695753	     57.06302102	      0.00000000	      0.00000000
      3.17000000	     -8.13191639	     -0.81471208	     -1.05802288	     -0.40633060	      0.91584821	     -1.04674167	     55.79247552	      0.64712716	    -11.42488057	      5.52274084	      0.09639001	      1.09505846	      0.00000000	      0.00000000	     45.28521765	     -2.31086851	     -7.09428682	     62.91354304	      1.09804847	     12.40804268	      0.00000000	      0.00000000	     -6.71507805	    -11.95413887	      3.83952877	     89.96595337	    -24.27547750	      8.48847681	     48.82461339	     39.00940014	      0.00000000	      0.00000000	     89.95615036	    -33.41879469	      2.78253522	     50.47864481	     56.08512308	      0.00000000	      0.00000000
      3.17500000	     -8.27882921	     -0.82401483	     -0.92067072	     -0.40599606	      0.91514455	     -1.04663107	     55.90511809	      0.55417938	    -11.57189769	      5.50703610	      0.09611591	      1.21160853	      0.00000000	      0.00000000	     45.49877902	     -2.26820122	     -7.02319265	     63.02919502	      1.10006698	     12.35356711	      0.00000000	      0.00000000	     -6.58298304	    -11.97765415	      3.70138764	     89.96582929	    -24.29618073	      8.43570430	     48.71010971	     39.47183014	      0.00000000	      0.00000000	     89.95610702	    -33.47298807	      2.85578673	     50.56837187	     54.87255177	      0.00000000	      0.00000000
      3.18000000	     -8.33735002	     -0.77075394	     -0.91361753	     -0.40609690	      0.91471363	     -1.04655679	     55.95655891	      0.51829173	    -11.60591252	      5.50041882	      0.09600042	      1.23101412	      0.00000000	      0.00000000	     45.60719902	     -2.23476209	     -7.06034934	     63.09467180	      1.10120976	     12.36787975	      0.00000000	      0.00000000	     -6.58933445	    -11.99369463	      3.51219740	     89.96596575	    -23.95240895	      8.57950787	     49.40373184	     30.21910270	      0.00000000	      0.00000000	     89.95592218	    -33.94143891	      1.65342552	     49.96037959	     72.68260357	      0.00000000	      0.00000000
      3.18500000	     -8.38365869	     -0.76808162	     -0.86459258	     -0.40623306	      0.91422358	     -1.04651467	     56.00475252	      0.48122334	    -11.72611366	      5.51683429	      0.09628692	      1.24720256	      0.00000000	      0.00000000	     45.72866587	     -2.22485420	     -7.04214440	     63.21514891	      1.10331249	     12.39797283	      0.00000000	      0.00000000	     -6.58827707	    -12.05897702	      3.54020270	     89.96586999	    -24.20800249	      8.42053785	     49.01682872	     35.62443331	      0.00000000	      0.00000000	     89.95619016	    -33.81788060	      2.55857127	     50.44052942	     61.32752597	      0.00000000	      0.00000000
      3.19000000	     -8.44191200	     -0.76033446	     -0.82046920	     -0.40632704	      0.91376859	     -1.04653063	     56.04119850	      0.44989029	    -11.79172562	      5.51073314	      0.09618044	      1.30702489	      0.00000000	      0.00000000	     45.84943713	     -2.20323612	     -7.01765088	     63.31357703	      1.10503038	     12.43506484	      0.00000000	      0.00000000	     -6.59483384	    -12.06076442	      3.45381398	     89.96588319	    -24.13408174	      8.50683097	     49.39524254	     30.54441845	      0.00000000	      0.00000000	     89.95606805	    -33.93953406	      1.55318427	     50.10262780	     72.66512992	      0.00000000	      0.00000000
      3.19500000	     -8.49094066	     -0.77620020	     -0.77414544	     -0.40639201	      0.91323300	     -1.04653253	     56.09049621	      0.42460601	    -11.91675801	      5.56122031	      0.09706160	      1.46134559	      0.00000000	      0.00000000	     45.96875213	     -2.21222464	     -6.99687121	     63.43257066	      1.10710721	     12.46209263	      0.00000000	      0.00000000	     -6.59348146	    -12.07971473	      3.47576967	     89.96581585	    -24.34304220	      8.46637487	     49.20775046	     33.22440643	      0.00000000	      0.00000000	     89.95607506	    -33.84837205	      1.82625165	     50.30360610	     68.01566954	      0.00000000	      0.00000000
      3.20000000	     -8.55186165	     -0.78855058	     -0.71171177	     -0.40661089	      0.91281203	     -1.04652663	     56.13000987	      0.39196670	    -12.02577949	      5.54344092	      0.09675130	      1.37957453	      0.00000000	      0.00000000	     46.10333018	     -2.19087247	     -6.93158827	     63.50694714	      1.10840533	     12.42151427	      0.00000000	      0.00000000	     -6.60699566	    -12.09049025	      3.45518574	     89.96579195	    -24.47074372	      8.36186279	     49.10872050	     34.91687072	      0.00000000	      0.00000000	     89.95619126	    -33.78901417	      2.02547097	     50.50247562	     64.54936051	      0.00000000	      0.00000000
      3.20500000	     -8.62461009	     -0.79285978	     -0.73202836	     -0.40674219	      0.91225813	     -1.04639516	     56.20817046	      0.41954506	    -12.07817597	      5.56917531	      0.09720045	      1.23294922	      0.00000000	      0.00000000	     46.24082900	     -2.23634643	     -6.96394217	     63.61367147	      1.11026802	     12.42812702	      0.00000000	      0.00000000	     -6.58776724	    -12.09275516	      3.41837414	     89.96579140	    -24.40550981	      8.38283384	     49.39924858	     31.42131690	      0.00000000	      0.00000000	     89.95610610	    -33.93644324	      1.28722144	     50.27474917	     73.07791795	      0.00000000	      0.00000000
      3.21000000	     -8.71446380	     -0.84792155	     -0.70468860	     -0.40692078	      0.91167399	     -1.04630685	     56.31309935	      0.43939923	    -12.16666598	      5.64852325	      0.09858533	      1.29320751	      0.00000000	      0.00000000	     46.43138772	     -2.27416822	     -6.89205441	     63.75265539	      1.11269374	     12.48373918	      0.00000000	      0.00000000	     -6.55607070	    -12.05386944	      3.44907789	     89.96576881	    -24.53890940	      8.28175140	     49.33084055	     33.04233422	      0.00000000	      0.00000000	     89.95625379	    -33.94985281	      1.62017813	     50.43580127	     69.68074734	      0.00000000	      0.00000000
      3.21500000	     -8.71391220	     -0.83884618	     -0.69109698	     -0.40695338	      0.91122864	     -1.04623647	     56.26388787	      0.45751033	    -12.26901100	      5.57604562	      0.09732036	      1.40143479	      0.00000000	      0.00000000	     46.47896610	     -2.28442338	     -6.91406210	     63.86164397	      1.11459595	     12.54607229	      0.00000000	      0.00000000	     -6.60089969	    -12.10926305	      3.51834012	     89.96564867	    -24.73315565	      8.18029341	     49.14630777	     35.48324124	      0.00000000	      0.00000000	     89.95624345	    -33.78125502	      1.81140854	     50.68892386	     65.05195954	      0.00000000	      0.00000000
      3.22000000	     -8.69017683	     -0.80951011	     -0.81660521	     -0.40767597	      0.91098367	     -1.04618693	     56.25915507	      0.53674544	    -12.14124985	      5.58932238	      0.09755208	      1.14257229	      0.00000000	      0.00000000	     46.51572076	     -2.33757977	     -6.98766044	     63.89476219	      1.11517397	     12.52675630	      0.00000000	      0.00000000	     -6.73016496	    -12.16389834	      3.69769691	     89.96572167	    -24.89407126	      8.10912677	     49.24925445	     35.76791900	      0.00000000	      0.00000000	     89.95640178	    -33.69167642	      1.72864623	     50.79858378	     64.36555850	      0.00000000	      0.00000000
      3.22500000	     -8.82795424	     -0.82043155	     -0.67518496	     -0.40730650	      0.91023057	     -1.04610230	     56.45031451	      0.43013633	    -12.38574640	      5.84879007	      0.10208064	      1.57210105	      0.00000000	      0.00000000	     46.73810095	     -2.26739691	     -6.86647109	     64.06522915	      1.11814918	     12.59769944	      0.00000000	      0.00000000	     -6.58330040	    -12.17004956	      3.54503074	     89.96562385	    -24.85521927	      7.99982332	     49.00800961	     36.33301648	      0.00000000	      0.00000000	     89.95635993	    -33.71518125	      1.73598598	     50.75360610	     63.02812344	      0.00000000	      0.00000000
      3.23000000	     -8.77634725	     -0.78164041	     -0.77147044	     -0.40789020	      0.91003833	     -1.04598279	     56.32312204	      0.51897741	    -12.23978896	      5.65811580	      0.09875275	      1.25942505	      0.00000000	      0.00000000	     46.73422102	     -2.31900466	     -6.96668506	     64.11079566	      1.11894447	     12.56240257	      0.00000000	      0.00000000	     -6.75239095	    -12.24152464	      3.64412435	     89.96562047	    -24.96680599	      7.92742976	     49.17867385	     36.49335085	      0.00000000	      0.00000000	     89.95643575	    -33.71488485	      1.69409296	     50.94926128	     62.68199061	      0.00000000	      0.00000000
